<mxfile host="app.diagrams.net" modified="2023-10-05T01:06:03.125Z" agent="Mozilla/5.0 (Windows NT 10.0; Win64; x64) AppleWebKit/537.36 (KHTML, like Gecko) Chrome/117.0.0.0 Safari/537.36" etag="Rxjp_88cl3eq7612_zgB" version="21.7.5" type="github">
  <diagram name="Página-1" id="xsVQie44XIYPBY81dkFi">
    <mxGraphModel dx="489" dy="271" grid="1" gridSize="10" guides="1" tooltips="1" connect="1" arrows="1" fold="1" page="1" pageScale="1" pageWidth="827" pageHeight="1169" math="0" shadow="0">
      <root>
        <mxCell id="0" />
        <mxCell id="1" parent="0" />
        <mxCell id="RP8ZW9oiCmfPVSoXK8gA-1" value="Herencia&lt;br&gt;Polimorfismo&lt;br&gt;Abstracción&lt;br&gt;Encapsulamiento" style="rounded=0;whiteSpace=wrap;html=1;fillColor=#dae8fc;strokeColor=#6c8ebf;" vertex="1" parent="1">
          <mxGeometry x="100" y="60" width="150" height="70" as="geometry" />
        </mxCell>
      </root>
    </mxGraphModel>
  </diagram>
</mxfile>
